<?xml version="1.0" encoding="utf-8"?>
<!-- Generator: Adobe Illustrator 23.0.3, SVG Export Plug-In . SVG Version: 6.00 Build 0)  -->
<svg version="1.1" id="top" xmlns="http://www.w3.org/2000/svg" xmlns:xlink="http://www.w3.org/1999/xlink" x="0px" y="0px"
	 viewBox="0 0 60 60" style="enable-background:new 0 0 60 60;" xml:space="preserve">
<style type="text/css">
	.st0{fill-rule:evenodd;clip-rule:evenodd;fill:#FFFFFF;}
	.st1{fill:#FFFFFF;}
	.st2{font-family:'ArialMT';}
	.st3{font-size:20px;}
</style>
<path id="Forma_1" class="st0" d="M3.7,28.3C3,29,3,30.1,3.7,30.8c0,0,0.1,0.1,0.1,0.1c0.8,0.7,1.9,0.7,2.7,0L30,8.3l23.6,22.6
	c0.8,0.7,1.9,0.7,2.7,0c0.7-0.7,0.7-1.8,0.1-2.5c0,0-0.1-0.1-0.1-0.1L31.3,4.4c-0.8-0.7-1.9-0.7-2.7,0L3.7,28.3z"/>
<text transform="matrix(1.0153 0 0 1 9.4956 55.1436)" class="st1 st2 st3">TOP</text>
</svg>
